<svg aria-hidden="true" style="position: absolute; width: 0; height: 0; overflow: hidden;" version="1.1" xmlns="http://www.w3.org/2000/svg" xmlns:xlink="http://www.w3.org/1999/xlink">
<defs>
<symbol id="icon-gift" viewBox="0 0 32 32">
<path d="M24.11 10c0.566-0.402 1.11-0.851 1.608-1.348 1.044-1.044 1.742-2.328 1.966-3.616 0.246-1.412-0.115-2.723-0.988-3.597-0.697-0.697-1.641-1.065-2.73-1.065-1.551 0-3.185 0.744-4.483 2.043-2.077 2.077-3.288 4.945-3.94 6.991-0.482-2.056-1.444-4.833-3.313-6.702-1.003-1.003-2.285-1.518-3.495-1.518-0.989 0-1.931 0.344-2.633 1.046-1.562 1.562-1.351 4.306 0.471 6.128 0.65 0.65 1.409 1.189 2.21 1.638h-6.782v8h2v14h24v-14h2v-8h-5.89zM21.073 4.007c0.866-0.866 1.948-1.384 2.892-1.384 0.334 0 0.803 0.070 1.139 0.406 0.813 0.813 0.357 2.697-0.977 4.031-1.373 1.373-3.221 2.318-4.826 2.939h-1.584c0.58-1.798 1.627-4.264 3.356-5.993zM7.31 5.028c-0.022-0.285-0.002-0.82 0.381-1.203 0.32-0.32 0.743-0.387 1.042-0.387v0c0.664 0 1.358 0.313 1.904 0.859 1.059 1.058 1.93 2.743 2.521 4.871 0.016 0.057 0.031 0.115 0.047 0.171-0.057-0.015-0.114-0.031-0.171-0.047-2.128-0.591-3.813-1.462-4.871-2.521-0.495-0.495-0.805-1.13-0.853-1.743zM14 30h-8v-13h8v13zM14 16h-10v-4h10v4zM26 30h-8v-13h8v13zM28 16h-10v-4h10v4z"></path>
</symbol>
<symbol id="icon-lang-arrow" viewBox="0 0 51 32">
<path fill="none" stroke="#fff" style="stroke: var(--color1, #fff)" stroke-linejoin="round" stroke-linecap="round" stroke-miterlimit="4" stroke-width="4.8" d="M48 4.8l-22.4 22.4-22.4-22.4"></path>
</symbol>
<symbol id="icon-iPhone" viewBox="0 0 20 32"><path  d="M17 0H3C1.346 0 0 1.346 0 3v26c0 1.654 1.346 3 3 3h14c1.654 0 3-1.346 3-3V3c0-1.654-1.346-3-3-3zM3 2h14a1 1 0 0 1 1 1v21H2V3a1 1 0 0 1 1-1zm14 28H3a1 1 0 0 1-1-1v-3h16v3a1 1 0 0 1-1 1z"/><path fill="#757575" style="fill:var(--color4, #757575)" d="M4.707 27.478c.391.365.391.956 0 1.321s-1.024.365-1.414 0c-.391-.365-.391-.956 0-1.321s1.024-.365 1.414 0z"/></symbol>
<symbol id="icon-android" viewBox="0 0 27 32">
<path fill="#fff" style="fill: var(--color1, #fff)" d="M5.073 24.204c0 0.836 0.682 1.518 1.522 1.518h1.74v4.3c0 1.089 0.875 1.979 1.95 1.979 1.079 0 1.95-0.886 1.95-1.979v-4.303h3.036v4.3c0 1.089 0.875 1.979 1.951 1.979 1.079 0 1.95-0.886 1.95-1.979v-4.3h1.74c0.839 0 1.522-0.682 1.522-1.518v-14.114h-17.362v14.117zM17.83 2.773l1.604-2.321c0.093-0.136 0.071-0.318-0.053-0.407-0.125-0.086-0.304-0.043-0.397 0.093l-1.665 2.414c-1.097-0.432-2.319-0.671-3.601-0.671s-2.504 0.239-3.601 0.671l-1.665-2.411c-0.093-0.136-0.271-0.182-0.397-0.093-0.125 0.086-0.146 0.264-0.054 0.407l1.604 2.321c-2.551 1.186-4.337 3.432-4.565 6.057h17.362c-0.236-2.628-2.026-4.875-4.573-6.060zM10.053 6.433c-0.19 0-0.376-0.056-0.534-0.162s-0.281-0.256-0.354-0.431c-0.073-0.176-0.092-0.369-0.055-0.555s0.129-0.358 0.263-0.492c0.134-0.134 0.306-0.226 0.492-0.263s0.38-0.018 0.555 0.055c0.176 0.073 0.326 0.196 0.431 0.354s0.162 0.344 0.162 0.534c-0.001 0.255-0.102 0.499-0.282 0.679s-0.424 0.281-0.679 0.282zM17.497 6.433c-0.19 0-0.376-0.056-0.534-0.162s-0.281-0.256-0.354-0.431c-0.073-0.176-0.092-0.369-0.055-0.555s0.129-0.358 0.263-0.492c0.134-0.134 0.306-0.226 0.492-0.263s0.38-0.018 0.555 0.055 0.326 0.196 0.431 0.354c0.106 0.158 0.162 0.344 0.162 0.534-0.001 0.255-0.102 0.499-0.282 0.679s-0.424 0.281-0.679 0.282zM25.478 10.030c-1.079 0-1.95 0.886-1.95 1.978v7.728c0 1.089 0.875 1.979 1.95 1.979 1.079 0 1.95-0.886 1.95-1.979v-7.732c0.003-1.093-0.868-1.975-1.95-1.975zM1.95 10.030c-1.079 0-1.95 0.886-1.95 1.978v7.728c0 1.089 0.875 1.979 1.95 1.979 1.079 0 1.95-0.886 1.95-1.979v-7.732c0-1.093-0.875-1.975-1.95-1.975z"></path>
</symbol>
<symbol id="icon-apple" viewBox="0 0 26 32">
<path fill="#fff" style="fill: var(--color1, #fff)" d="M21.403 16.911c-0.015-2.623 1.117-4.6 3.402-6.057-1.278-1.923-3.212-2.981-5.761-3.184-2.413-0.2-5.054 1.477-6.021 1.477-1.022 0-3.358-1.408-5.197-1.408-3.794 0.062-7.827 3.177-7.827 9.515 0 1.873 0.326 3.808 0.978 5.8 0.872 2.623 4.014 9.050 7.292 8.946 1.714-0.042 2.926-1.277 5.157-1.277 2.164 0 3.285 1.277 5.197 1.277 3.307-0.050 6.149-5.892 6.977-8.523-4.435-2.196-4.197-6.431-4.197-6.565zM17.554 5.181c1.857-2.315 1.688-4.423 1.633-5.181-1.641 0.1-3.538 1.173-4.618 2.492-1.19 1.415-1.89 3.165-1.74 5.138 1.773 0.142 3.391-0.815 4.724-2.45z"></path>
</symbol>
<symbol id="icon-rating-star" viewBox="0 0 33 32">
<path fill="#ffc512" style="fill: var(--color1, #ffc512); stroke: var(--color1, #ffc512)" stroke="#ffc512" stroke-linejoin="miter" stroke-linecap="butt" stroke-miterlimit="4" stroke-width="4.1739" d="M16.696 5.632l3.091 7.748 8.314 0.571-6.394 5.387 2.023 8.117-7.035-4.447-7.035 4.447 2.023-8.117-6.394-5.387 8.314-0.571 3.091-7.748z"></path>
</symbol>
<symbol id="icon-red-playBtn" viewBox="0 0 32 32">
<path fill="#fcfcfc" style="fill: var(--color1, #fcfcfc)" d="M32 16c0 8.837-7.163 16-16 16s-16-7.163-16-16c0-8.837 7.163-16 16-16s16 7.163 16 16z"></path>
<path fill="#f04c44" style="fill: var(--color2, #f04c44)" d="M12.509 22.4c-0.135 0-0.265-0.053-0.36-0.146s-0.149-0.221-0.149-0.354v-11c0-0.087 0.023-0.172 0.067-0.248s0.107-0.138 0.183-0.183c0.076-0.044 0.163-0.068 0.251-0.070s0.176 0.020 0.253 0.062l10.182 5.5c0.080 0.043 0.146 0.107 0.193 0.184s0.071 0.165 0.071 0.254c0 0.090-0.024 0.177-0.071 0.254s-0.113 0.14-0.193 0.184l-10.182 5.5c-0.075 0.041-0.16 0.062-0.245 0.062z"></path>
</symbol>
<symbol id="icon-white-playBtn" viewBox="0 0 32 32">
<path fill="#fcfcfc" style="fill: var(--color1, #fcfcfc)" d="M7.345 28.8c-0.251 0-0.491-0.105-0.669-0.293s-0.277-0.442-0.277-0.707v-22c0-0.174 0.043-0.345 0.124-0.495s0.199-0.277 0.34-0.365c0.141-0.088 0.302-0.136 0.466-0.139s0.326 0.040 0.47 0.124l18.909 11c0.148 0.086 0.272 0.213 0.358 0.367s0.132 0.33 0.132 0.509c0 0.179-0.045 0.355-0.132 0.509s-0.21 0.281-0.358 0.367l-18.909 11c-0.14 0.081-0.296 0.124-0.456 0.124z"></path>
</symbol>
<symbol id="icon-burning-cash" viewBox="0 0 32 32">
<path d="M26 7c1.654 0 3-1.271 3-2.833 0-2.322-3-4.167-3-4.167s-3 1.845-3 4.167c0 1.562 1.346 2.833 3 2.833zM26 2.576c0.523 0.552 1.006 1.211 1.006 1.591 0 0.524-0.451 0.95-1.006 0.95s-1.006-0.426-1.006-0.95c0-0.384 0.479-1.037 1.005-1.591z"></path>
<path d="M15.958 22.409h1.084c0.546 0 0.99 0.41 0.99 0.914s-0.444 0.914-0.99 0.914h-1.104c-0.527 0-0.955-0.395-0.955-0.882h-1.968c0 1.356 1.088 2.481 2.5 2.67v0.975h1.968v-0.977c1.422-0.198 2.516-1.333 2.516-2.701 0-1.506-1.327-2.731-2.958-2.731h-1.084c-0.546 0-0.99-0.41-0.99-0.914s0.444-0.914 0.99-0.914h1.059c0.546 0 0.991 0.41 0.991 0.915h1.968c0-1.36-1.082-2.491-2.492-2.698v-0.98h-1.968v0.977c-1.422 0.198-2.516 1.333-2.516 2.701 0 1.506 1.327 2.731 2.958 2.731z"></path>
<path d="M24.634 11.297c-0.050-2.952-1.767-4.813-4.196-5.891-0.237 0.402-0.386 0.885-0.817 1.231-0.248 0.185-0.417 0.167-0.609 0.078-0.304-0.141-0.46-0.287-0.119-1.646 0.576-3.131-1.856-4.28-3.672-5.070-0.171 1.317-0.006 2.511-1.461 3.492-1.791 0.956-1.582 2.312-1.457 3.122 0.106 0.69 0.116 0.904-0.341 1.248-0.099 0.074-0.33 0.248-0.862 0.001-0.693-0.357-0.872-0.694-1.322-1.117-1.474 1.183-2.35 2.714-2.407 4.551h-7.37v20.703h32v-20.703h-7.366zM9.876 9.33c0.867 0.527 2.102 0.866 3.212 0.030 1.375-1.033 1.182-2.284 1.067-3.031-0.083-0.564-0.174-0.841 0.487-1.183 1.025-0.547 1.602-1.44 1.923-2.206 0.004 0.005 0.009 0.009 0.013 0.014 0.485 0.513 0.646 1.056 0.495 1.66-0.157 0.625-0.293 1.237-0.234 1.856 0.084 0.893 0.563 1.566 1.384 1.947 0.934 0.442 2.028 0.246 2.818-0.531 1.078 0.792 1.708 2.057 1.717 3.411h-13.514c0.034-0.713 0.253-1.402 0.632-1.967zM23.531 20.308l-0.945 0.945v-4.317h2.055c0.283 0.801 0.919 1.437 1.72 1.72v5.981c-0.801 0.283-1.437 0.919-1.72 1.72h-2.055v-4.344l0.945 0.945 1.326-1.326-1.326-1.326zM9.416 21.256l-0.948-0.948-1.326 1.326 1.326 1.326 0.948-0.948v4.346h-2.056c-0.283-0.801-0.919-1.437-1.72-1.72v-5.981c0.801-0.283 1.437-0.919 1.72-1.72h2.056v4.319zM9.416 15.062h-3.77v0.938c0 0.52-0.423 0.943-0.943 0.943h-0.938v9.41h0.938c0.52 0 0.943 0.423 0.943 0.943v0.938h3.77v1.891h-7.542v-16.953h7.542v1.89zM20.711 30.125h-9.419v-16.953h9.419v16.953zM30.125 30.125h-7.539v-1.891h3.77v-0.938c0-0.52 0.423-0.943 0.943-0.943h0.938v-9.41h-0.938c-0.52 0-0.943-0.423-0.943-0.943v-0.938h-3.77v-1.89h7.539v16.953z"></path>
</symbol>
<symbol id="icon-crown" viewBox="0 0 32 32">
<path d="M8 24h17v2h-17v-2z"></path>
<path d="M9 18l1.42-1.408 1.42 1.408-1.42 1.408-1.42-1.408z"></path>
<path d="M20 18l1.42-1.408 1.42 1.408-1.42 1.408-1.42-1.408z"></path>
<path d="M12 16.5l3.5 4.5 3.5-4.5-3.5-4.5-3.5 4.5zM15.5 17.992l-1.16-1.492 1.16-1.492 1.16 1.492-1.16 1.492z"></path>
<path d="M32 12.266c0-1.542-1.265-2.797-2.82-2.797-1.539 0-2.793 1.228-2.819 2.748l-1.843 0.608c-1.409 0.465-2.96-0.129-3.689-1.412l-2.709-4.775c0.435-0.492 0.7-1.136 0.7-1.841 0-1.542-1.265-2.797-2.82-2.797s-2.82 1.255-2.82 2.797c0 0.705 0.265 1.349 0.7 1.841l-2.709 4.775c-0.728 1.284-2.28 1.877-3.689 1.412l-1.843-0.608c-0.027-1.52-1.28-2.748-2.819-2.748-1.555 0-2.82 1.255-2.82 2.797 0 1.408 1.055 2.576 2.423 2.768l1.137 5.638h-1.109v1.859h1.315v5.609h-1.315v1.859h27.1v-1.859h-1.315v-5.609h1.315v-1.859h-1.109l1.137-5.638c1.367-0.192 2.423-1.36 2.423-2.768zM29.18 11.328c0.521 0 0.945 0.421 0.945 0.938s-0.424 0.937-0.945 0.937c-0.521 0-0.945-0.421-0.945-0.937s0.424-0.938 0.945-0.938zM16 3.86c0.521 0 0.945 0.421 0.945 0.937s-0.424 0.937-0.945 0.937c-0.521 0-0.945-0.421-0.945-0.937s0.424-0.937 0.945-0.937zM1.875 12.266c0-0.517 0.424-0.938 0.945-0.938s0.945 0.421 0.945 0.938c0 0.517-0.424 0.937-0.945 0.937s-0.945-0.421-0.945-0.937zM26.359 28.141h-20.719v-5.609h20.719v5.609zM5.472 20.672l-1.211-6.003c0.303-0.179 0.569-0.413 0.785-0.688l1.844 0.609c2.149 0.736 4.769-0.188 5.915-2.265l2.708-4.773c0.158 0.027 0.321 0.043 0.487 0.043s0.329-0.015 0.487-0.043l2.708 4.773c1.167 2.068 3.671 2.997 5.915 2.265l1.844-0.609c0.216 0.275 0.482 0.509 0.785 0.688l-1.211 6.003h-21.057z"></path>
</symbol>
<symbol id="icon-cup" viewBox="0 0 24 32">
<path d="M9 26h6v2h-6v-2z"></path>
<path d="M15.495 6.427l-2.195-0.335-0.982-2.092h-1.635l-0.982 2.092-2.196 0.335-0.505 1.635 1.589 1.628-0.375 2.299 1.323 1.010 1.964-1.085 1.964 1.085 1.323-1.010-0.375-2.299 1.589-1.628-0.505-1.635zM12.679 10.402l-1.179-0.652-1.179 0.652 0.225-1.381-0.954-0.978 1.319-0.201 0.59-1.256 0.59 1.256 1.318 0.201-0.954 0.978 0.225 1.381z"></path>
<path d="M20.306 1.883v-1.883h-16.613v1.883h-3.693v5.585c0 2.948 2.205 5.382 5.023 5.675 0.617 0.971 1.423 1.805 2.364 2.449-0.094 1.58 0.541 3.172 1.823 4.154-0.105 1.049-0.564 2.070-1.282 2.849h-2.388v9.406h12.92v-9.406h-2.388c-0.719-0.779-1.178-1.801-1.283-2.851 1.209-0.904 1.925-2.524 1.823-4.152 0.942-0.643 1.748-1.478 2.364-2.449 2.817-0.293 5.023-2.726 5.023-5.675v-5.585h-3.694zM1.839 7.468v-3.71h1.854v4.794c0 0.832 0.119 1.636 0.339 2.397-1.293-0.606-2.194-1.938-2.194-3.481zM16.621 30.125h-9.241v-5.656h9.241v5.656zM13.803 22.594h-3.606c0.351-0.628 0.604-1.312 0.745-2.015 0.343 0.082 0.697 0.125 1.058 0.125 0.364 0 0.717-0.044 1.057-0.126 0.141 0.704 0.395 1.388 0.746 2.017zM12 18.828c-1.24 0.022-2.486-0.957-2.721-2.275 0.853 0.302 1.768 0.467 2.721 0.467s1.867-0.165 2.72-0.467c-0.253 1.295-1.377 2.274-2.72 2.274zM12 15.146c-3.566 0-6.467-2.958-6.467-6.594v-6.677h12.935v6.677c0 3.636-2.901 6.594-6.467 6.594zM22.161 7.468c0 1.543-0.901 2.875-2.194 3.481 0.22-0.76 0.339-1.565 0.339-2.397v-4.794h1.854v3.71z"></path>
</symbol>
<symbol id="icon-desktop" viewBox="0 0 32 32">
<path d="M32 24.398v-22.398h-32v22.398h11.297v2.805c0 0.517-0.424 0.938-0.945 0.938h-1.883v1.859h15.062v-1.859h-1.883c-0.521 0-0.945-0.421-0.945-0.938v-2.805h11.297zM1.875 3.859h28.25v14.945h-28.25v-14.945zM13.008 28.141c0.105-0.293 0.164-0.609 0.164-0.938v-2.805h5.656v2.805c0 0.329 0.058 0.644 0.163 0.938h-5.983zM1.875 22.539v-1.875h28.25v1.875h-28.25z"></path>
<path d="M7 11l1.42-1.408 1.42 1.408-1.42 1.408-1.42-1.408z"></path>
<path d="M22 11l1.42-1.408 1.42 1.408-1.42 1.408-1.42-1.408z"></path>
<path d="M15.5 6c-2.932 1.862-4.513 3.647-4.5 5.49 0 1.732 1.329 3.141 2.962 3.141 0.21 0 0.418-0.024 0.62-0.070v1.438h1.835v-1.438c0.202 0.046 0.41 0.070 0.62 0.070 1.633 0 2.962-1.409 2.962-3.141 0.035-1.98-1.861-3.809-4.5-5.49zM17.038 12.685c-0.603 0.074-1.19-0.84-1.538-1.245-0.4 0.443-0.842 1.26-1.538 1.245-0.621 0-1.126-0.536-1.126-1.195 0-1.046 1.354-2.257 2.664-3.184 1.311 0.927 2.664 2.137 2.664 3.184 0 0.659-0.505 1.195-1.126 1.195z"></path>
</symbol>
<symbol id="icon-smartphone" viewBox="0 0 32 32">
<path stroke-linejoin="miter" stroke-linecap="butt" stroke-miterlimit="4" stroke-width="1" d="M22.5 2h-12c-0.662 0.004-1.296 0.288-1.764 0.79s-0.733 1.184-0.736 1.895v23.63c0.003 0.711 0.268 1.392 0.736 1.895s1.102 0.787 1.764 0.79h12c0.662-0.003 1.296-0.288 1.764-0.79s0.733-1.184 0.736-1.895v-23.63c-0.003-0.711-0.268-1.392-0.736-1.895s-1.102-0.787-1.764-0.79zM9 7.37h15v18.259h-15v-18.259zM10.5 3.074h12c0.398 0 0.779 0.17 1.061 0.472s0.439 0.712 0.439 1.139v1.611h-15v-1.611c0-0.427 0.158-0.837 0.439-1.139s0.663-0.472 1.061-0.472zM22.5 29.926h-12c-0.398 0-0.779-0.17-1.061-0.472s-0.439-0.712-0.439-1.139v-1.611h15v1.611c0 0.427-0.158 0.837-0.439 1.139s-0.663 0.472-1.061 0.472z"></path>
</symbol>
<symbol id="icon-lock" viewBox="0 0 32 32">
<path d="M7 20l1.42-1.408 1.42 1.408-1.42 1.408-1.42-1.408z"></path>
<path d="M22 20l1.42-1.408 1.42 1.408-1.42 1.408-1.42-1.408z"></path>
<path d="M32 8.593v-6.593h-32v6.593h3.766v6.6l-1.658 0.94c-1.3 0.736-2.107 2.116-2.107 3.601s0.807 2.864 2.107 3.601l9.91 5.616c1.211 0.686 2.588 1.049 3.983 1.049s2.772-0.363 3.983-1.049l9.91-5.616c1.3-0.736 2.107-2.116 2.107-3.601s-0.807-2.864-2.107-3.601l-1.659-0.94v-6.6h3.766zM1.875 3.859h28.25v2.874h-28.25v-2.874zM19.983 10.518c-1.211-0.686-2.588-1.049-3.983-1.049s-2.772 0.363-3.983 1.049l-2.611 1.48v-3.404h13.188v3.404l-2.611-1.48zM5.641 8.593h1.891v4.467l-1.891 1.071v-5.538zM30.125 19.734c0 0.819-0.445 1.58-1.162 1.986l-9.91 5.616c-0.928 0.526-1.983 0.804-3.052 0.804s-2.124-0.278-3.052-0.804l-9.91-5.616c-0.717-0.406-1.162-1.167-1.162-1.986s0.445-1.58 1.162-1.986l9.91-5.616c0.928-0.526 1.983-0.804 3.052-0.804s2.124 0.278 3.052 0.804l9.91 5.616c0.717 0.406 1.162 1.167 1.162 1.986zM26.359 14.131l-1.891-1.071v-4.467h1.891v5.538z"></path>
<path d="M15.5 15c-2.932 1.862-4.513 3.647-4.5 5.491 0 1.732 1.329 3.141 2.962 3.141 0.21 0 0.418-0.024 0.62-0.070v1.438h1.835v-1.438c0.202 0.046 0.41 0.070 0.62 0.070 1.633 0 2.962-1.409 2.962-3.141 0.035-1.98-1.861-3.809-4.5-5.491zM17.038 21.685c-0.603 0.074-1.191-0.84-1.538-1.245-0.4 0.443-0.842 1.26-1.538 1.245-0.621 0-1.126-0.536-1.126-1.195 0-1.046 1.354-2.257 2.664-3.184 1.31 0.927 2.664 2.137 2.664 3.184 0 0.659-0.505 1.195-1.126 1.195z"></path>
</symbol>
<symbol id="icon-person" viewBox="0 0 29 32">
<path d="M9 27h2v2h-2v-2z"></path>
<path d="M27.296 24.208c-0.385-1.76-1.716-3.161-3.475-3.655l-5.101-1.433-0.428-2.129c1.381-1.154 2.267-2.923 2.267-4.902v-3.601c0.628-0.426 1.453-1.327 1.453-3.124 0.071-2.763-2.446-5.428-5.319-5.362-0.898 0-1.896 0.195-2.953 0.401-2.266 0.506-4.498 0.751-6.377-0.359-1.185 2.991-0.837 5.801 1.078 8.226v3.818c0 1.98 0.886 3.748 2.267 4.902l-0.428 2.129-5.101 1.433c-1.758 0.494-3.090 1.895-3.475 3.655l-1.704 7.792h29l-1.704-7.792zM14.5 27.089c-0.246-0.488-0.537-0.953-0.871-1.389l-0.617-0.806 1.487-1.892 1.487 1.892-0.617 0.806c-0.334 0.436-0.625 0.902-0.871 1.389zM12.109 26.828c0.736 0.962 1.209 2.107 1.373 3.297h-5.873v-8.305l0.549-0.154 3.951 5.162zM16.891 26.828l3.951-5.162 0.549 0.154v8.305h-5.873c0.164-1.19 0.637-2.336 1.373-3.297zM18.88 21.114l-1.705 2.227-1.201-1.528 2.012-0.95 0.894 0.251zM9.843 6.993c-1.003-1.289-1.438-2.905-1.215-4.449 1.802 0.415 3.738 0.038 5.482-0.303 0.963-0.188 1.872-0.365 2.583-0.365 1.851 0 3.415 1.597 3.415 3.487 0 0.287-0.032 0.525-0.083 0.724-0.667-1.116-2.069-1.771-3.456-1.662-1.267 1.579-3.257 2.578-5.326 2.567l-1.4 0zM10.345 8.868h0.898c2.311 0 4.518-0.915 6.132-2.525 0.733 0.167 1.281 0.816 1.281 1.588v4.158c0 2.435-1.864 4.416-4.155 4.416s-4.155-1.981-4.155-4.416v-3.22h0zM14.5 18.379c0.721 0 1.413-0.132 2.056-0.373l0.267 1.327-2.322 1.097-2.322-1.097 0.267-1.327c0.642 0.241 1.334 0.373 2.056 0.373zM11.015 20.863l2.012 0.95-1.201 1.528-1.705-2.227 0.894-0.251zM3.565 24.603c0.237-1.082 1.055-1.943 2.136-2.247l0.004-0.001v7.771h-3.348l1.208-5.522zM23.294 30.125v-7.771l0.004 0.001c1.081 0.304 1.899 1.165 2.136 2.247l1.208 5.522h-3.348z"></path>
</symbol>
<symbol id="icon-profile-rewiews" viewBox="0 0 32 32">
<path d="M4 21.5h6v2h-6v-2z"></path>
<path d="M11 21.5h2v2h-2v-2z"></path>
<path d="M15 21.5h6v2h-6v-2z"></path>
<path d="M23 21.5h2v2h-2v-2z"></path>
<path d="M32 4.5h-28.234v3.819h-3.766v19.181h28.234v-3.819h3.766v-19.181zM5.641 6.402h24.484v7.738h-1.891v-5.821h-22.594v-1.918zM28.234 16.042h1.891v1.918h-1.891v-1.918zM26.359 25.598h-24.484v-15.377h24.484v15.377zM28.234 21.779v-1.918h1.891v1.918h-1.891z"></path>
<path d="M12 12.5h-8v6h8v-6zM10.006 16.506h-4.012v-2.011h4.012v2.011z"></path>
</symbol>
<symbol id="icon-complaints" viewBox="0 0 32 32">
<path d="M17 15.5h2v2h-2v-2z"></path>
<path d="M21 15.5h2v2h-2v-2z"></path>
<path d="M13 15.5h2v2h-2v-2z"></path>
<path d="M9 15.5h2v2h-2v-2z"></path>
<path d="M21.648 5.5h-11.297c-5.708 0-10.352 4.71-10.352 10.5s4.644 10.5 10.352 10.5h11.297c5.708 0 10.352-4.71 10.352-10.5s-4.644-10.5-10.352-10.5zM11.289 22.68h3.773v1.918h-3.773v-1.918zM16.938 22.68h3.773v1.918h-3.773v-1.918zM21.648 20.779h-11.297c-2.598 0-4.711-2.144-4.711-4.779s2.113-4.779 4.711-4.779h11.297c2.598 0 4.711 2.144 4.711 4.779s-2.113 4.779-4.711 4.779zM16.938 9.32v-1.918h3.773v1.918h-3.773zM15.063 9.32h-3.773v-1.918h3.773v1.918zM1.875 16c0-4.42 3.305-8.070 7.539-8.545v1.933c-3.189 0.463-5.648 3.252-5.648 6.612s2.459 6.149 5.648 6.612v1.933c-4.234-0.475-7.539-4.126-7.539-8.545zM22.586 24.545v-1.933c3.189-0.463 5.648-3.252 5.648-6.613s-2.459-6.149-5.648-6.612v-1.933c4.235 0.475 7.539 4.126 7.539 8.545s-3.305 8.070-7.539 8.545z"></path>
</symbol>
</defs>
</svg>
